<svg width="304" height="40" viewBox="0 0 304 40" fill="none" xmlns="http://www.w3.org/2000/svg">
<path d="M32.7841 25.536L33.4561 25.68L31.6321 35.28C31.6321 35.28 26.0641 39.504 19.2001 38.928C16.0801 38.592 12.7681 37.872 10.0801 36.144C7.44006 34.464 4.75206 32.448 2.88006 29.664C1.05606 26.88 5.57005e-05 23.184 5.57005e-05 19.776C5.57005e-05 16.368 1.05606 12.624 2.88006 9.84C4.75206 7.104 7.44006 5.088 10.0801 3.36C12.7681 1.632 16.0801 0.912004 19.2001 0.576003C26.0641 1.90735e-06 30.0961 3.36 30.0961 3.36L30.1441 3.6L31.9201 13.008L31.2481 13.104C27.4561 0.912004 21.4081 0.816003 19.0561 1.104C18.8641 1.152 18.7681 1.152 18.7681 1.152C15.8881 1.632 13.2001 2.784 10.8961 4.416C8.49606 6.24 7.05606 8.784 6.00006 11.472C4.99206 14.208 4.56006 16.992 4.56006 19.776C4.56006 22.512 4.99206 25.296 6.00006 28.032C7.05606 30.72 8.49606 33.264 10.8961 35.088C13.2001 36.768 15.8881 37.872 18.7681 38.352C18.7681 38.352 18.8641 38.4 19.0561 38.4C21.8401 38.832 29.0401 37.728 32.7841 25.536ZM69.1641 9.696C70.9881 12.48 72.0441 16.272 72.0441 19.728C72.0441 23.232 70.9881 27.024 69.1641 29.808C67.2921 32.64 64.6041 34.656 61.9641 36.432C61.1001 36.96 60.1881 37.392 59.2761 37.776C55.1481 39.408 50.5401 39.408 46.4121 37.824C45.4041 37.44 44.4441 36.96 43.5801 36.432C40.9401 34.656 38.2521 32.64 36.3801 29.808C34.5561 27.024 33.5001 23.232 33.5001 19.728C33.5001 16.272 34.5561 12.48 36.3801 9.696C38.2521 6.864 40.9401 4.848 43.5801 3.072C44.4441 2.496 45.4041 2.064 46.4121 1.68C50.5401 0.0960035 55.1481 0.0960035 59.2761 1.728C60.1881 2.112 61.1001 2.544 61.9641 3.072C64.6041 4.848 67.2921 6.864 69.1641 9.696ZM66.0441 28.128C67.0521 25.392 67.4841 22.56 67.4841 19.728C67.4841 16.944 67.0521 14.112 66.0441 11.328C65.0361 8.64 63.5481 6.048 61.1481 4.176C61.0521 4.128 60.9561 4.032 60.8601 3.984C56.0121 0.576003 49.5321 0.576003 44.6841 3.984C44.5881 4.032 44.4921 4.128 44.3961 4.176C41.9961 6.048 40.5081 8.64 39.5001 11.328C38.4921 14.112 38.0601 16.944 38.0601 19.728C38.0601 22.56 38.4921 25.392 39.5001 28.128C40.5081 30.864 41.9961 33.456 44.3961 35.328C44.4921 35.376 44.5881 35.472 44.6841 35.52C49.5321 38.928 56.0121 38.928 60.8601 35.52C60.9561 35.472 61.0521 35.376 61.1481 35.328C63.5481 33.456 65.0361 30.864 66.0441 28.128ZM76.4786 8.736C76.4786 19.056 99.1346 15.504 99.1346 28.656C99.1346 34.704 94.2386 38.976 86.4626 38.976C78.6866 38.976 73.8386 34.608 73.8386 34.608L72.0146 25.008L72.6866 24.864C75.9026 33.216 80.7506 38.4 86.9906 38.4C92.0786 38.4 95.7746 35.04 95.7746 30.432C95.7746 19.488 73.1186 23.184 73.1186 10.368C73.1186 4.704 78.4466 0.480004 85.8866 0.480004C89.5346 0.480004 93.7586 2.208 96.6386 3.696L98.5106 13.296L97.8386 13.44C94.5746 6.096 90.6866 1.104 84.9746 1.104C80.1266 1.104 76.4786 4.56 76.4786 8.736ZM144.645 37.632V38.304H132.261V37.632C133.461 37.632 134.517 37.152 135.285 36.384C136.053 35.616 136.533 34.56 136.533 33.36V5.904C136.533 5.088 135.429 4.848 135.093 5.568L119.541 38.016C119.493 38.112 119.445 38.16 119.349 38.208C119.253 38.256 119.157 38.304 119.061 38.304C118.869 38.304 118.677 38.16 118.629 37.968L105.525 5.616C105.189 4.8 103.989 5.04 103.989 5.904V33.36C103.989 34.56 104.469 35.616 105.237 36.384C106.005 37.152 107.109 37.632 108.261 37.632V38.304H99.0927V37.632C101.445 37.632 103.365 35.712 103.365 33.36V6.144C103.365 4.944 102.885 3.888 102.117 3.12C101.349 2.352 100.293 1.872 99.0927 1.872V1.2H108.453L119.493 28.56C120.165 30.24 122.565 30.336 123.381 28.656L136.533 1.2H144.645V1.872C143.445 1.872 142.389 2.352 141.621 3.12C140.853 3.888 140.373 4.944 140.373 6.144V33.36C140.373 35.712 142.293 37.632 144.645 37.632ZM152.705 37.632H164.177C169.313 37.632 173.633 33.696 174.113 28.56H174.785L173.921 38.304H144.593V37.632C145.793 37.632 146.849 37.152 147.617 36.384C148.385 35.616 148.865 34.56 148.865 33.36V6.144C148.865 3.792 146.945 1.872 144.593 1.872V1.2H173.249L174.113 10.944H173.441C172.961 5.808 168.641 1.872 163.457 1.872H152.705V15.648C152.705 17.376 154.097 18.768 155.825 18.768H159.713C163.121 18.768 165.857 15.984 165.857 12.576H166.577V25.584H165.857C165.857 22.176 163.121 19.392 159.713 19.392H155.825C154.097 19.392 152.705 20.832 152.705 22.512V37.632ZM204.238 10.944C203.758 5.904 199.582 2.016 194.542 1.872H191.758V33.36C191.758 35.712 193.63 37.632 195.982 37.632V38.304H183.646V37.632C184.798 37.632 185.854 37.152 186.622 36.384C187.39 35.616 187.87 34.512 187.87 33.36V1.872H185.086C180.046 2.016 175.87 5.904 175.39 10.944H174.718L174.958 8.208L175.582 1.2H204.046L204.67 8.208L204.91 10.944H204.238ZM211.408 37.632H222.88C228.016 37.632 232.336 33.696 232.816 28.56H233.488L232.624 38.304H203.296V37.632C204.496 37.632 205.552 37.152 206.32 36.384C207.088 35.616 207.568 34.56 207.568 33.36V6.144C207.568 3.792 205.648 1.872 203.296 1.872V1.2H231.952L232.816 10.944H232.144C231.664 5.808 227.344 1.872 222.16 1.872H211.408V15.648C211.408 17.376 212.8 18.768 214.528 18.768H218.416C221.824 18.768 224.56 15.984 224.56 12.576H225.28V25.584H224.56C224.56 22.176 221.824 19.392 218.416 19.392H214.528C212.8 19.392 211.408 20.832 211.408 22.512V37.632ZM266.253 25.536L266.925 25.68L265.101 35.28C265.101 35.28 259.533 39.504 252.669 38.928C249.549 38.592 246.237 37.872 243.549 36.144C240.909 34.464 238.221 32.448 236.349 29.664C234.525 26.88 233.469 23.184 233.469 19.776C233.469 16.368 234.525 12.624 236.349 9.84C238.221 7.104 240.909 5.088 243.549 3.36C246.237 1.632 249.549 0.912004 252.669 0.576003C259.533 1.90735e-06 263.565 3.36 263.565 3.36L263.613 3.6L265.389 13.008L264.717 13.104C260.925 0.912004 254.877 0.816003 252.525 1.104C252.333 1.152 252.237 1.152 252.237 1.152C249.357 1.632 246.669 2.784 244.365 4.416C241.965 6.24 240.525 8.784 239.469 11.472C238.461 14.208 238.029 16.992 238.029 19.776C238.029 22.512 238.461 25.296 239.469 28.032C240.525 30.72 241.965 33.264 244.365 35.088C246.669 36.768 249.357 37.872 252.237 38.352C252.237 38.352 252.333 38.4 252.525 38.4C255.309 38.832 262.509 37.728 266.253 25.536ZM299.454 6.144V33.36C299.454 35.712 301.374 37.632 303.678 37.632V38.304H291.342V37.632C293.694 37.632 295.614 35.712 295.614 33.36V22.56C295.614 20.88 294.222 19.488 292.494 19.488H276.606C274.878 19.488 273.486 20.88 273.486 22.608V33.36C273.486 35.712 275.406 37.632 277.758 37.632V38.304H265.422V37.632C267.726 37.632 269.646 35.712 269.646 33.36V6.144C269.646 3.792 267.726 1.872 265.422 1.872V1.2H277.758V1.872C275.406 1.872 273.486 3.792 273.486 6.144V15.696C273.486 17.424 274.878 18.816 276.606 18.816H292.494C294.222 18.816 295.614 17.424 295.614 15.696V6.144C295.614 3.792 293.694 1.872 291.342 1.872V1.2H303.678V1.872C301.374 1.872 299.454 3.792 299.454 6.144Z" fill="#140F0F"/>
</svg>
