<svg xmlns="http://www.w3.org/2000/svg" viewBox="0 -480 1600 1600">
<path fill="#010101" opacity="1.000000" stroke="none"
	d="
M731.071533,342.000000
	C731.071411,406.654907 731.071411,470.809814 731.071411,535.402344
	C718.367310,535.402344 705.986084,535.402344 693.116699,535.402344
	C693.116699,441.352966 693.116699,347.131927 693.116699,252.910904
	C692.833191,252.897797 692.549622,252.884674 692.266113,252.871567
	C682.184570,347.055573 672.103088,441.239624 661.977539,535.835022
	C649.934570,535.835022 638.298401,535.924316 626.669312,535.681274
	C625.636169,535.659607 623.892944,533.558350 623.752563,532.282837
	C621.607910,512.794495 619.671143,493.283234 617.694519,473.776459
	C615.885864,455.926941 614.085693,438.076569 612.285217,420.226227
	C610.167664,399.232330 608.115662,378.231598 605.919556,357.245941
	C604.056152,339.440155 601.958923,321.658813 600.097534,303.852814
	C598.890686,292.307892 597.944824,280.735931 596.833557,269.180725
	C596.471191,265.413116 595.956055,261.660217 595.052002,257.919769
	C595.052002,350.356476 595.052002,442.793182 595.052002,535.425781
	C582.843262,535.425781 570.960449,535.425781 558.628540,535.425781
	C558.628540,392.451599 558.628540,249.889877 558.628540,107.107445
	C578.883667,107.107445 599.106567,107.107445 619.215515,107.107445
	C627.573303,193.261078 635.892273,279.015076 644.211243,364.769073
	C644.636658,364.803131 645.062134,364.837189 645.487549,364.871246
	C653.713806,279.019775 661.940063,193.168274 670.198547,106.980057
	C690.503967,106.980057 710.543518,106.980057 731.071594,106.980057
	C731.071594,185.286713 731.071594,263.393341 731.071533,342.000000
z"/>
<path fill="#010101" opacity="1.000000" stroke="none"
	d="
M400.740295,170.299469
	C408.275482,194.169373 414.501526,217.998505 416.859680,242.532990
	C419.370026,268.651154 421.920288,294.870026 422.237854,321.071747
	C422.824310,369.465881 417.115936,417.265717 403.056549,463.778198
	C396.334503,486.016632 387.579590,507.359619 372.285614,525.368469
	C363.284821,535.966980 352.252014,543.370239 338.416809,545.828674
	C319.864929,549.125183 305.175598,541.707947 293.305084,528.130859
	C277.839630,510.441986 269.567963,489.002380 263.033569,466.876709
	C253.643463,435.081299 248.682999,402.501160 245.723404,369.496002
	C243.159042,340.898438 242.751328,312.302063 244.208527,283.716675
	C246.355728,241.595901 252.801193,200.166397 267.790649,160.459991
	C273.890228,144.302414 281.568359,128.918442 294.813446,117.339035
	C319.146637,96.065941 353.413208,93.812233 378.059204,125.687447
	C388.361237,139.011230 395.420563,153.990051 400.740295,170.299469
M331.710266,197.286209
	C329.016266,198.014404 326.138153,198.357758 323.662323,199.542084
	C315.853485,203.277512 311.556244,210.270584 308.027649,217.717133
	C299.287720,236.161346 295.702118,256.028076 294.406952,276.055511
	C292.874634,299.749146 292.596222,323.568146 292.861420,347.320648
	C293.104218,369.068756 295.730835,390.740967 301.327820,411.796326
	C304.117462,422.290863 307.890045,432.833008 313.123199,442.300568
	C322.191071,458.705658 338.956757,459.169250 350.356323,444.343048
	C356.973358,435.736969 360.613159,425.746124 363.519806,415.501221
	C369.303345,395.116272 371.804596,374.209412 373.024017,353.097717
	C375.064850,317.764160 373.388214,282.691193 365.819672,248.045395
	C362.725433,233.881287 358.773682,219.921539 350.054901,207.973099
	C345.769379,202.100082 340.694458,197.050323 331.710266,197.286209
z"/>
<path fill="#010101" opacity="1.000000" stroke="none"
	d="
M1402.000000,364.206085
	C1393.871216,364.205353 1386.242554,364.205353 1377.950439,364.205353
	C1377.950439,421.484009 1377.950439,478.372803 1377.950439,535.550537
	C1362.550049,535.550537 1347.815796,535.550537 1332.757812,535.550537
	C1332.757812,392.691162 1332.757812,249.955551 1332.757812,106.963013
	C1347.769287,106.963013 1362.651489,106.963013 1377.908447,106.963013
	C1377.908447,162.462936 1377.908447,217.547195 1377.908447,272.950745
	C1397.314087,272.950745 1416.343628,272.950745 1435.711548,272.950745
	C1435.711548,217.538315 1435.711548,162.441956 1435.711548,106.946747
	C1450.780273,106.946747 1465.512695,106.946747 1480.900879,106.946747
	C1480.900879,249.891739 1480.900879,392.585114 1480.900879,535.566528
	C1465.855591,535.566528 1451.272217,535.566528 1435.983398,535.566528
	C1435.983398,478.649017 1435.983398,421.784058 1435.983398,364.206818
	C1424.362793,364.206818 1413.431396,364.206818 1402.000000,364.206085
z"/>
<path fill="#010101" opacity="1.000000" stroke="none"
	d="
M1111.000244,106.786598
	C1129.651123,106.787102 1147.802002,106.787102 1166.100342,106.787102
	C1166.100342,138.973877 1166.100342,170.708221 1166.100342,202.912552
	C1142.055542,202.912552 1118.464844,202.912552 1094.649170,202.912552
	C1094.649170,227.943146 1094.649170,252.500137 1094.649170,277.825256
	C1114.746948,277.825256 1134.345337,277.825256 1154.289307,277.825256
	C1154.289307,308.651154 1154.289307,338.707062 1154.289307,369.265045
	C1134.142700,369.265045 1114.409180,369.265045 1094.391357,369.265045
	C1094.391357,394.529205 1094.391357,419.292419 1094.391357,444.537537
	C1118.238403,444.537537 1141.992920,444.537537 1166.148315,444.537537
	C1166.148315,475.056396 1166.148315,505.096832 1166.148315,535.497681
	C1127.326294,535.497681 1088.611206,535.497681 1049.613037,535.497681
	C1049.613037,392.728760 1049.613037,249.975281 1049.613037,106.786095
	C1069.964600,106.786095 1090.232300,106.786095 1111.000244,106.786598
z"/>
<path fill="#010101" opacity="1.000000" stroke="none"
	d="
M810.131226,369.404663
	C807.347717,369.403076 805.047180,369.403076 802.442017,369.403076
	C802.442017,394.493347 802.442017,419.235657 802.442017,444.611298
	C826.307129,444.611298 850.179077,444.611298 874.031128,444.611298
	C874.031128,475.295868 874.031128,505.345673 874.031128,535.617676
	C834.922424,535.617676 796.327087,535.617676 757.264526,535.617676
	C757.264526,392.733215 757.264526,249.902985 757.264526,106.996826
	C796.307800,106.996826 835.218140,106.996826 874.193115,106.996826
	C874.193115,139.109909 874.193115,170.827591 874.193115,202.943939
	C850.081238,202.943939 826.486084,202.943939 802.511841,202.943939
	C802.511841,227.888290 802.511841,252.435852 802.511841,277.439880
	C821.941101,277.439880 841.354187,277.439880 861.674622,277.439880
	C863.501038,308.165009 862.433960,338.484436 862.287354,369.406281
	C844.830750,369.406281 827.722412,369.406281 810.131226,369.404663
z"/>
<path fill="#010101" opacity="1.000000" stroke="none"
	d="
M234.006088,482.869202
	C233.228180,497.635468 232.343079,511.919952 231.796753,526.217407
	C231.677994,529.325012 230.690659,530.876160 227.952850,532.273987
	C216.781479,537.977844 205.398407,543.181519 192.710098,543.928101
	C172.634918,545.109436 157.565964,535.816223 146.028854,520.115295
	C132.143585,501.218811 125.306190,479.319000 119.907532,456.915680
	C114.175621,433.129395 111.032944,408.942841 108.712517,384.584991
	C105.661568,352.558624 104.168037,320.491760 105.471207,288.377808
	C106.977226,251.265289 112.862640,214.783356 123.535179,179.124527
	C128.942520,161.057632 135.119965,143.360977 145.965729,127.690186
	C154.679306,115.100151 165.228760,104.616066 180.354111,100.205826
	C198.581635,94.891060 214.790756,100.633484 229.999878,110.420204
	C230.977280,111.049141 231.567841,112.910149 231.631927,114.232254
	C232.501877,132.181213 233.137650,150.141815 234.057312,168.087967
	C234.788147,182.349533 235.828415,196.595276 236.809402,212.080811
	C234.136703,210.423203 232.204559,209.413742 230.482468,208.123840
	C223.340164,202.774033 215.760834,198.399490 206.707275,197.318283
	C191.489990,195.500946 180.498947,202.546234 171.617981,214.088760
	C160.837723,228.099792 157.726242,244.784622 154.901428,261.574951
	C150.219406,289.404236 149.546097,317.475464 150.664856,345.566010
	C151.718781,372.028656 154.686935,398.299164 165.226868,422.973358
	C167.868469,429.157318 171.592438,435.090790 175.808258,440.345703
	C184.196930,450.801910 197.307083,453.963409 209.524704,448.066803
	C217.370819,444.280029 224.403214,438.799896 231.766968,434.027283
	C233.219864,433.085632 234.520203,431.908630 236.619797,430.271942
	C235.719376,448.326355 234.869904,465.359253 234.006088,482.869202
z"/>
<path fill="#010101" opacity="1.000000" stroke="none"
	d="
M1216.152344,142.115662
	C1222.544067,128.947403 1229.926270,117.053818 1241.704590,108.377419
	C1257.270142,96.911110 1273.866333,94.982086 1291.589722,102.424896
	C1296.804443,104.614815 1301.968018,106.972580 1306.955322,109.628426
	C1308.365479,110.379303 1309.888794,112.411903 1309.972656,113.933121
	C1311.088745,134.194473 1311.958374,154.469391 1312.888672,174.740952
	C1313.376953,185.381256 1313.879517,196.020966 1314.333252,206.662750
	C1314.393433,208.074112 1314.202393,209.496170 1314.084106,211.737411
	C1310.685669,209.333969 1307.926025,207.323196 1305.107666,205.398499
	C1283.253296,190.473862 1261.122559,195.467056 1247.249390,218.140030
	C1239.354004,231.043671 1235.691284,245.272568 1233.213013,259.912598
	C1228.418457,288.236084 1227.559814,316.825256 1229.262451,345.393951
	C1230.723267,369.905731 1232.939331,394.507172 1241.599976,417.789124
	C1244.397827,425.310242 1248.545654,432.536133 1253.178589,439.121307
	C1261.062988,450.328247 1275.464722,454.139404 1287.854614,448.225983
	C1295.119507,444.758636 1301.634155,439.697968 1308.406372,435.232910
	C1310.291382,433.990051 1311.891602,432.315430 1314.337158,430.229156
	C1314.337158,436.325409 1314.575928,441.553619 1314.296143,446.753906
	C1313.000977,470.829803 1310.752441,494.890442 1310.529419,518.972168
	C1310.424438,530.319763 1304.828491,534.343750 1295.934082,537.754822
	C1281.069336,543.455444 1266.214600,546.301147 1250.774170,540.298706
	C1235.203247,534.245483 1225.053711,522.395813 1217.086670,508.377106
	C1205.515137,488.015961 1198.914551,465.798676 1195.249512,442.925354
	C1191.265381,418.059753 1187.983032,392.999786 1186.137573,367.896423
	C1184.298950,342.882538 1183.267578,317.654877 1184.282349,292.618195
	C1186.309448,242.601440 1193.360596,193.344574 1213.868164,146.960312
	C1214.539429,145.442307 1215.281982,143.955841 1216.152344,142.115662
z"/>
<path fill="#010101" opacity="1.000000" stroke="none"
	d="
M536.637268,437.950867
	C535.883240,464.870605 533.003296,490.910736 521.110718,515.031616
	C514.720581,527.992310 505.654297,538.670044 490.951996,542.232605
	C471.924377,546.843262 454.827728,540.679626 438.705383,531.037720
	C437.669739,530.418396 437.149567,528.268005 437.081726,526.797913
	C435.647369,495.708008 434.323517,464.613068 432.935852,433.520966
	C432.832855,431.213135 432.411255,428.919525 431.971222,425.218750
	C434.581604,427.586761 436.239380,429.268829 438.076294,430.724945
	C444.694366,435.971039 450.897614,441.954346 458.124054,446.175995
	C474.911987,455.983490 487.190430,449.338531 489.919800,429.927399
	C492.323608,412.831665 489.731354,396.345184 483.262573,380.622955
	C475.926605,362.793030 467.887878,345.240540 459.756592,327.752533
	C449.678986,306.078491 440.813751,283.958649 438.451996,260.022461
	C436.642975,241.688110 435.565430,223.187073 435.742828,204.775391
	C435.960876,182.139648 438.531799,159.625473 446.685394,138.188431
	C451.551636,125.394264 458.024933,113.545906 469.983917,106.000694
	C486.215363,95.759872 502.437347,99.143295 518.403259,107.041275
	C520.629333,108.142448 522.834534,109.415436 524.741760,110.983177
	C525.892700,111.929314 527.107910,113.564819 527.177185,114.946564
	C528.768860,146.691376 530.206909,178.443893 531.662781,210.195480
	C531.668335,210.316193 531.518494,210.444016 530.943542,211.370605
	C528.473328,209.186966 526.094177,207.061218 523.690552,204.963470
	C517.156494,199.260818 510.029816,194.973434 500.956238,194.925537
	C493.605682,194.886734 488.768463,198.415314 485.743927,204.903854
	C479.801056,217.653198 480.579681,230.708786 483.684784,243.953598
	C488.973511,266.512848 499.495758,286.970917 509.057281,307.823944
	C518.412720,328.227570 528.212219,348.477386 532.175903,370.859192
	C536.078491,392.896057 537.189087,415.122467 536.637268,437.950867
z"/>
<path fill="#010101" opacity="1.000000" stroke="none"
	d="
M901.339478,128.999542
	C901.323059,121.383385 901.323059,114.266960 901.323059,106.906303
	C946.986694,106.906303 992.102600,106.906303 1037.607178,106.906303
	C1037.607178,138.324463 1037.607178,169.711243 1037.607178,201.925140
	C1022.845398,201.925140 1008.147156,201.925140 992.933716,201.925140
	C992.933716,313.629364 992.933716,424.508881 992.933716,535.618042
	C977.302429,535.618042 962.199829,535.618042 946.528137,535.618042
	C946.528137,424.640564 946.528137,313.740112 946.528137,202.038757
	C931.418762,202.038757 916.851562,202.038757 901.355835,202.038757
	C901.355835,177.330551 901.355835,153.414902 901.339478,128.999542
z"/>
</svg>