<svg xmlns="http://www.w3.org/2000/svg" viewBox="-55 94.89 450 450.22">
<path fill="#010101" d="
M234.006088,482.869202
	C233.228180,497.635468 232.343079,511.919952 231.796753,526.217407
	C231.677994,529.325012 230.690659,530.876160 227.952850,532.273987
	C216.781479,537.977844 205.398407,543.181519 192.710098,543.928101
	C172.634918,545.109436 157.565964,535.816223 146.028854,520.115295
	C132.143585,501.218811 125.306190,479.319000 119.907532,456.915680
	C114.175621,433.129395 111.032944,408.942841 108.712517,384.584991
	C105.661568,352.558624 104.168037,320.491760 105.471207,288.377808
	C106.977226,251.265289 112.862640,214.783356 123.535179,179.124527
	C128.942520,161.057632 135.119965,143.360977 145.965729,127.690186
	C154.679306,115.100151 165.228760,104.616066 180.354111,100.205826
	C198.581635,94.891060 214.790756,100.633484 229.999878,110.420204
	C230.977280,111.049141 231.567841,112.910149 231.631927,114.232254
	C232.501877,132.181213 233.137650,150.141815 234.057312,168.087967
	C234.788147,182.349533 235.828415,196.595276 236.809402,212.080811
	C234.136703,210.423203 232.204559,209.413742 230.482468,208.123840
	C223.340164,202.774033 215.760834,198.399490 206.707275,197.318283
	C191.489990,195.500946 180.498947,202.546234 171.617981,214.088760
	C160.837723,228.099792 157.726242,244.784622 154.901428,261.574951
	C150.219406,289.404236 149.546097,317.475464 150.664856,345.566010
	C151.718781,372.028656 154.686935,398.299164 165.226868,422.973358
	C167.868469,429.157318 171.592438,435.090790 175.808258,440.345703
	C184.196930,450.801910 197.307083,453.963409 209.524704,448.066803
	C217.370819,444.280029 224.403214,438.799896 231.766968,434.027283
	C233.219864,433.085632 234.520203,431.908630 236.619797,430.271942
	C235.719376,448.326355 234.869904,465.359253 234.006088,482.869202
z"/>
</svg>
